<svg aria-hidden="true" style="position:absolute;width:0;height:0" xmlns="http://www.w3.org/2000/svg" overflow="hidden">

    <symbol id="icon-products-link" viewBox="0 0 32 32">
        <path
            d="M31.008 13.773l-10-9.002c-1.232-1.108-3.13-1.012-4.238 0.224-1.108 1.23-1.008 3.128 0.224 4.236l4.186 3.77h-18.18c-1.658 0-3 1.342-3 3s1.342 3 3 3h18.184l-4.192 3.77c-1.232 1.11-1.332 3.006-0.224 4.236 0.594 0.658 1.412 0.994 2.232 0.994 0.716 0 1.434-0.254 2.006-0.77l10-8.998c0.632-0.568 0.994-1.38 0.994-2.23s-0.362-1.662-0.992-2.23z">
        </path>
    </symbol>
    <symbol id="open-menu" viewBox="0 0 20 14">
        <g>
            <path d="M0 1H20" stroke="#D41443" />
            <path d="M0 7H20" stroke="#D41443" />
            <path d="M0 13H20" stroke="#D41443" />
        </g>
    </symbol>
    <symbol id="close-menu" viewBox="0 0 16 16">
        <g>
            <path d="M1.25928 1L14.7408 15" stroke="white" />
            <path d="M1 14.7407L15 1.25924" stroke="white" />
        </g>
    </symbol>
</svg>